<?xml version="1.0" encoding="UTF-8"?>
<svg xmlns="http://www.w3.org/2000/svg" xmlns:xlink="http://www.w3.org/1999/xlink" width="16px" height="16px" viewBox="0 0 16 15" version="1.1">
<g id="surface1">
<path style=" stroke:none;fill-rule:nonzero;fill:rgb(96.078431%,69.803922%,10.588235%);fill-opacity:1;" d="M 8.910156 4.691406 C 8.910156 6.875 7.503906 8.847656 4.777344 9.316406 L 8.625 13.609375 L 8.96875 13.148438 L 15.902344 3.898438 L 15.902344 0 L 4.632812 0 C 7.503906 0.265625 8.910156 2.507812 8.910156 4.691406 Z M 8.910156 4.691406 "/>
<path style=" stroke:none;fill-rule:nonzero;fill:rgb(15.686275%,19.607843%,44.705882%);fill-opacity:1;" d="M 0.996094 7.332031 L 3.652344 7.332031 C 5.613281 7.332031 6.59375 6.015625 6.59375 4.691406 C 6.59375 3.367188 5.613281 2.117188 3.652344 2.117188 L 0.015625 2.117188 L 0.015625 15 L 6.808594 15 L 0.996094 8.390625 Z M 10.871094 14.332031 L 15.984375 7.589844 L 15.984375 14.992188 L 10.363281 14.992188 Z M 10.871094 14.332031 "/>
</g>
</svg>
